<!-- public/space-bg.svg -->
<svg width="1920" height="1080" viewBox="0 0 1920 1080" xmlns="http://www.w3.org/2000/svg">
  <rect width="1920" height="1080" fill="#02030a" />

  <!-- Big soft stars -->
  <circle cx="200" cy="180" r="2" fill="#ffffff" fill-opacity="0.9" />
  <circle cx="400" cy="260" r="2" fill="#9fc9ff" fill-opacity="0.9" />
  <circle cx="900" cy="120" r="2.5" fill="#ffffff" fill-opacity="0.95" />
  <circle cx="1520" cy="260" r="2" fill="#9fc9ff" fill-opacity="0.9" />
  <circle cx="1700" cy="160" r="2.5" fill="#ffffff" fill-opacity="0.95" />

  <!-- Medium stars -->
  <circle cx="180" cy="520" r="1.4" fill="#ffffff" fill-opacity="0.8" />
  <circle cx="360" cy="720" r="1.4" fill="#9fc9ff" fill-opacity="0.8" />
  <circle cx="640" cy="320" r="1.2" fill="#ffffff" fill-opacity="0.7" />
  <circle cx="840" cy="520" r="1.4" fill="#9fc9ff" fill-opacity="0.85" />
  <circle cx="1120" cy="420" r="1.4" fill="#ffffff" fill-opacity="0.8" />
  <circle cx="1320" cy="640" r="1.4" fill="#9fc9ff" fill-opacity="0.8" />
  <circle cx="1680" cy="520" r="1.4" fill="#ffffff" fill-opacity="0.8" />

  <!-- Small stars -->
  <circle cx="80" cy="80" r="0.9" fill="#ffffff" fill-opacity="0.7" />
  <circle cx="260" cy="60" r="0.8" fill="#ffffff" fill-opacity="0.6" />
  <circle cx="520" cy="140" r="0.9" fill="#ffffff" fill-opacity="0.7" />
  <circle cx="720" cy="80" r="0.8" fill="#ffffff" fill-opacity="0.6" />
  <circle cx="1040" cy="80" r="0.9" fill="#ffffff" fill-opacity="0.7" />
  <circle cx="1320" cy="120" r="0.8" fill="#ffffff" fill-opacity="0.6" />
  <circle cx="1560" cy="80" r="0.8" fill="#ffffff" fill-opacity="0.6" />
  <circle cx="1840" cy="120" r="0.9" fill="#ffffff" fill-opacity="0.7" />

  <!-- Random small stars field -->
  <g fill="#ffffff" fill-opacity="0.5">
    <circle cx="140" cy="360" r="0.7" />
    <circle cx="220" cy="440" r="0.7" />
    <circle cx="300" cy="540" r="0.7" />
    <circle cx="420" cy="380" r="0.7" />
    <circle cx="520" cy="460" r="0.7" />
    <circle cx="600" cy="560" r="0.7" />
    <circle cx="740" cy="360" r="0.7" />
    <circle cx="820" cy="440" r="0.7" />
    <circle cx="940" cy="360" r="0.7" />
    <circle cx="1040" cy="520" r="0.7" />
    <circle cx="1160" cy="360" r="0.7" />
    <circle cx="1240" cy="480" r="0.7" />
    <circle cx="1380" cy="420" r="0.7" />
    <circle cx="1480" cy="520" r="0.7" />
    <circle cx="1600" cy="420" r="0.7" />
    <circle cx="1760" cy="460" r="0.7" />
  </g>

  <!-- Lower area denser stars -->
  <g fill="#ffffff" fill-opacity="0.45">
    <circle cx="160" cy="760" r="0.7" />
    <circle cx="280" cy="860" r="0.7" />
    <circle cx="420" cy="780" r="0.7" />
    <circle cx="560" cy="900" r="0.7" />
    <circle cx="700" cy="820" r="0.7" />
    <circle cx="860" cy="900" r="0.7" />
    <circle cx="980" cy="780" r="0.7" />
    <circle cx="1120" cy="880" r="0.7" />
    <circle cx="1280" cy="820" r="0.7" />
    <circle cx="1420" cy="920" r="0.7" />
    <circle cx="1580" cy="820" r="0.7" />
    <circle cx="1740" cy="900" r="0.7" />
  </g>
</svg>
